<?xml version="1.0" encoding="UTF-8" standalone="no"?>
<svg
   height="214.90mm"
   viewBox="0.0 0.0 119.90 214.90"
   width="119.90mm"
   version="1.1"
   id="svg7806"
   sodipodi:docname="AX12box.svg"
   inkscape:version="1.1.1 (c3084ef, 2021-09-22)"
   xmlns:inkscape="http://www.inkscape.org/namespaces/inkscape"
   xmlns:sodipodi="http://sodipodi.sourceforge.net/DTD/sodipodi-0.dtd"
   xmlns="http://www.w3.org/2000/svg"
   xmlns:svg="http://www.w3.org/2000/svg"
   xmlns:rdf="http://www.w3.org/1999/02/22-rdf-syntax-ns#"
   xmlns:cc="http://creativecommons.org/ns#"
   xmlns:dc="http://purl.org/dc/elements/1.1/">
  <defs
     id="defs7810" />
  <sodipodi:namedview
     id="namedview7808"
     pagecolor="#ffffff"
     bordercolor="#666666"
     borderopacity="1.0"
     inkscape:pageshadow="2"
     inkscape:pageopacity="0.0"
     inkscape:pagecheckerboard="0"
     inkscape:document-units="mm"
     showgrid="false"
     inkscape:zoom="0.88522765"
     inkscape:cx="226.49541"
     inkscape:cy="406.67505"
     inkscape:window-width="1920"
     inkscape:window-height="1172"
     inkscape:window-x="0"
     inkscape:window-y="0"
     inkscape:window-maximized="1"
     inkscape:current-layer="svg7806" />
  <!--
OpenBox - Box with top and front open

Created with Boxes.py (https://festi.info/boxes.py)
Creation date: 2022-03-31 00:02:15
Command line (remove spaces between dashes): boxes OpenBox - -FingerJoint_angle=90.0 - -FingerJoint_style=rectangular - -FingerJoint_surroundingspaces=2.0 - -FingerJoint_edge_width=1.0 - -FingerJoint_extra_length=0.0 - -FingerJoint_finger=2.0 - -FingerJoint_play=0.0 - -FingerJoint_space=2.0 - -FingerJoint_width=1.0 - -x=32 - -y=50 - -h=91 - -outside=0 - -edgetype=F - -thickness=5.0 - -format=svg - -tabs=0.0 - -debug=0 - -labels=0 - -labels=1 - -reference=0 - -inner_corners=loop - -burn=0.1
Url: http://www.festi.info/OpenBox?FingerJoint_angle=90.0&FingerJoint_style=rectangular&FingerJoint_surroundingspaces=2.0&FingerJoint_edge_width=1.0&FingerJoint_extra_length=0.0&FingerJoint_finger=2.0&FingerJoint_play=0.0&FingerJoint_space=2.0&FingerJoint_width=1.0&x=32&y=50&h=91&outside=0&edgetype=F&thickness=5.0&format=svg&tabs=0.0&debug=0&labels=0&labels=1&reference=0&inner_corners=loop&burn=0.1&render=1
SettingsUrl: http://www.festi.info/OpenBox?FingerJoint_angle=90.0&FingerJoint_style=rectangular&FingerJoint_surroundingspaces=2.0&FingerJoint_edge_width=1.0&FingerJoint_extra_length=0.0&FingerJoint_finger=2.0&FingerJoint_play=0.0&FingerJoint_space=2.0&FingerJoint_width=1.0&x=32&y=50&h=91&outside=0&edgetype=F&thickness=5.0&format=svg&tabs=0.0&debug=0&labels=0&labels=1&reference=0&inner_corners=loop&burn=0.1
-->
  <title
     id="title7790">OpenBox</title>
  <metadata
     id="metadata7792">
    <rdf:RDF>
      <cc:Work>
        <dc:title>Box - OpenBox</dc:title>
        <dc:date>2022-03-31 00:02:15</dc:date>
        <dc:source>http://www.festi.info/OpenBox?FingerJoint_angle=90.0&amp;FingerJoint_style=rectangular&amp;FingerJoint_surroundingspaces=2.0&amp;FingerJoint_edge_width=1.0&amp;FingerJoint_extra_length=0.0&amp;FingerJoint_finger=2.0&amp;FingerJoint_play=0.0&amp;FingerJoint_space=2.0&amp;FingerJoint_width=1.0&amp;x=32&amp;y=50&amp;h=91&amp;outside=0&amp;edgetype=F&amp;thickness=5.0&amp;format=svg&amp;tabs=0.0&amp;debug=0&amp;labels=0&amp;labels=1&amp;reference=0&amp;inner_corners=loop&amp;burn=0.1&amp;render=1</dc:source>
        <dc:description>Box with top and front open

Created with Boxes.py (https://festi.info/boxes.py)
Command line: boxes OpenBox --FingerJoint_angle=90.0 --FingerJoint_style=rectangular --FingerJoint_surroundingspaces=2.0 --FingerJoint_edge_width=1.0 --FingerJoint_extra_length=0.0 --FingerJoint_finger=2.0 --FingerJoint_play=0.0 --FingerJoint_space=2.0 --FingerJoint_width=1.0 --x=32 --y=50 --h=91 --outside=0 --edgetype=F --thickness=5.0 --format=svg --tabs=0.0 --debug=0 --labels=0 --labels=1 --reference=0 --inner_corners=loop --burn=0.1
Url: http://www.festi.info/OpenBox?FingerJoint_angle=90.0&amp;FingerJoint_style=rectangular&amp;FingerJoint_surroundingspaces=2.0&amp;FingerJoint_edge_width=1.0&amp;FingerJoint_extra_length=0.0&amp;FingerJoint_finger=2.0&amp;FingerJoint_play=0.0&amp;FingerJoint_space=2.0&amp;FingerJoint_width=1.0&amp;x=32&amp;y=50&amp;h=91&amp;outside=0&amp;edgetype=F&amp;thickness=5.0&amp;format=svg&amp;tabs=0.0&amp;debug=0&amp;labels=0&amp;labels=1&amp;reference=0&amp;inner_corners=loop&amp;burn=0.1&amp;render=1
SettingsUrl: http://www.festi.info/OpenBox?FingerJoint_angle=90.0&amp;FingerJoint_style=rectangular&amp;FingerJoint_surroundingspaces=2.0&amp;FingerJoint_edge_width=1.0&amp;FingerJoint_extra_length=0.0&amp;FingerJoint_finger=2.0&amp;FingerJoint_play=0.0&amp;FingerJoint_space=2.0&amp;FingerJoint_width=1.0&amp;x=32&amp;y=50&amp;h=91&amp;outside=0&amp;edgetype=F&amp;thickness=5.0&amp;format=svg&amp;tabs=0.0&amp;debug=0&amp;labels=0&amp;labels=1&amp;reference=0&amp;inner_corners=loop&amp;burn=0.1
</dc:description>
      </cc:Work>
    </rdf:RDF>
  </metadata>
  <g
     id="p-0"
     style="fill:none;stroke:#ff0000;stroke-linecap:round;stroke-linejoin:round;stroke-opacity:1">
    <path
       d="m 15.1,204.9 h 11 c 0.055,0 0.1,-0.045 0.1,-0.1 v -4.9 c 0,-0.1 -0.1,0 0,0 H 36 c 0.1,0 0,-0.1 0,0 v 4.9 c 0,0.055 0.045,0.1 0.1,0.1 h 11 5 c 0.055,0 0.1,-0.045 0.1,-0.1 v -5 -10.5 c 0,-0.055 -0.045,-0.1 -0.1,-0.1 h -4.9 c -0.1,0 0,0.1 0,0 v -9.8 c 0,-0.1 -0.1,0 0,0 h 4.9 c 0.055,0 0.1,-0.045 0.1,-0.1 v -10 c 0,-0.055 -0.045,-0.1 -0.1,-0.1 h -4.9 c -0.1,0 0,0.1 0,0 v -9.8 c 0,-0.1 -0.1,0 0,0 h 4.9 c 0.055,0 0.1,-0.045 0.1,-0.1 v -10 c 0,-0.055 -0.045,-0.1 -0.1,-0.1 h -4.9 c -0.1,0 0,0.1 0,0 v -9.8 c 0,-0.1 -0.1,0 0,0 h 4.9 c 0.055,0 0.1,-0.045 0.1,-0.1 v -10 c 0,-0.055 -0.045,-0.1 -0.1,-0.1 h -4.9 c -0.1,0 0,0.1 0,0 v -9.8 c 0,-0.1 -0.1,0 0,0 h 4.9 c 0.055,0 0.1,-0.045 0.1,-0.1 v -10.5 c 0,-0.055 -0.045,-0.1 -0.1,-0.1 h -5 -32 -5 c -0.055,0 -0.1,0.045 -0.1,0.1 v 10.5 c 0,0.055 0.045,0.1 0.1,0.1 H 15 c 0.1,0 0,-0.1 0,0 v 9.8 c 0,0.1 0.1,0 0,0 h -4.9 c -0.055,0 -0.1,0.045 -0.1,0.1 v 10 c 0,0.055 0.045,0.1 0.1,0.1 H 15 c 0.1,0 0,-0.1 0,0 v 9.8 c 0,0.1 0.1,0 0,0 h -4.9 c -0.055,0 -0.1,0.045 -0.1,0.1 v 10 c 0,0.055 0.045,0.1 0.1,0.1 H 15 c 0.1,0 0,-0.1 0,0 v 9.8 c 0,0.1 0.1,0 0,0 h -4.9 c -0.055,0 -0.1,0.045 -0.1,0.1 v 10 c 0,0.055 0.045,0.1 0.1,0.1 H 15 c 0.1,0 0,-0.1 0,0 v 9.8 c 0,0.1 0.1,0 0,0 h -4.9 c -0.055,0 -0.1,0.045 -0.1,0.1 v 10.5 5 c 0,0.055 0.045,0.1 0.1,0.1 z"
       stroke="#000000"
       stroke-width="0.2"
       id="path7794"
       style="stroke:#ff0000;stroke-opacity:1" />
  </g>
  <g
     id="p-1"
     style="fill:none;stroke:#ff0000;stroke-linecap:round;stroke-linejoin:round;stroke-opacity:1">
    <path
       d="m 59.8,204.9 h 10 c 0.055,0 0.1,-0.045 0.1,-0.1 v -4.9 c 0,-0.1 -0.1,0 0,0 h 9.8 c 0.1,0 0,-0.1 0,0 v 4.9 c 0,0.055 0.045,0.1 0.1,0.1 h 10 c 0.055,0 0.1,-0.045 0.1,-0.1 v -4.9 c 0,-0.1 -0.1,0 0,0 h 9.8 c 0.1,0 0,-0.1 0,0 v 4.9 c 0,0.055 0.045,0.1 0.1,0.1 h 10 c 0.055,0 0.1,-0.045 0.1,-0.1 v -5 -91 c 0,-0.055 -0.045,-0.1 -0.1,-0.1 h -50 c -0.055,0 -0.1,0.045 -0.1,0.1 v 10.4 c 0,0.1 0.1,0 0,0 h -4.9 c -0.055,0 -0.1,0.045 -0.1,0.1 v 10 c 0,0.055 0.045,0.1 0.1,0.1 h 4.9 c 0.1,0 0,-0.1 0,0 v 9.8 c 0,0.1 0.1,0 0,0 h -4.9 c -0.055,0 -0.1,0.045 -0.1,0.1 v 10 c 0,0.055 0.045,0.1 0.1,0.1 h 4.9 c 0.1,0 0,-0.1 0,0 v 9.8 c 0,0.1 0.1,0 0,0 h -4.9 c -0.055,0 -0.1,0.045 -0.1,0.1 v 10 c 0,0.055 0.045,0.1 0.1,0.1 h 4.9 c 0.1,0 0,-0.1 0,0 v 9.8 c 0,0.1 0.1,0 0,0 h -4.9 c -0.055,0 -0.1,0.045 -0.1,0.1 v 10 c 0,0.055 0.045,0.1 0.1,0.1 h 4.9 c 0.1,0 0,-0.1 0,0 v 10.4 5 c 0,0.055 0.045,0.1 0.1,0.1 z"
       stroke="#000000"
       stroke-width="0.2"
       id="path7797"
       style="stroke:#ff0000;stroke-opacity:1" />
  </g>
  <g
     id="p-2"
     style="fill:none;stroke:#ff0000;stroke-linecap:round;stroke-linejoin:round;stroke-opacity:1">
    <path
       d="m 59.8,106.2 h 10 c 0.055,0 0.1,-0.045 0.1,-0.1 v -4.9 c 0,-0.1 -0.1,0 0,0 h 9.8 c 0.1,0 0,-0.1 0,0 v 4.9 c 0,0.055 0.045,0.1 0.1,0.1 h 10 c 0.055,0 0.1,-0.045 0.1,-0.1 v -4.9 c 0,-0.1 -0.1,0 0,0 h 9.8 c 0.1,0 0,-0.1 0,0 v 4.9 c 0,0.055 0.045,0.1 0.1,0.1 h 10 c 0.055,0 0.1,-0.045 0.1,-0.1 v -5 -91 c 0,-0.055 -0.045,-0.1 -0.1,-0.1 h -50 c -0.055,0 -0.1,0.045 -0.1,0.1 v 10.4 c 0,0.1 0.1,0 0,0 h -4.9 c -0.055,0 -0.1,0.045 -0.1,0.1 v 10 c 0,0.055 0.045,0.1 0.1,0.1 h 4.9 c 0.1,0 0,-0.1 0,0 v 9.8 c 0,0.1 0.1,0 0,0 h -4.9 c -0.055,0 -0.1,0.045 -0.1,0.1 v 10 c 0,0.055 0.045,0.1 0.1,0.1 h 4.9 c 0.1,0 0,-0.1 0,0 v 9.8 c 0,0.1 0.1,0 0,0 h -4.9 c -0.055,0 -0.1,0.045 -0.1,0.1 v 10 c 0,0.055 0.045,0.1 0.1,0.1 h 4.9 c 0.1,0 0,-0.1 0,0 v 9.8 c 0,0.1 0.1,0 0,0 h -4.9 c -0.055,0 -0.1,0.045 -0.1,0.1 v 10 c 0,0.055 0.045,0.1 0.1,0.1 h 4.9 c 0.1,0 0,-0.1 0,0 v 10.4 5 c 0,0.055 0.045,0.1 0.1,0.1 z"
       stroke="#000000"
       stroke-width="0.2"
       id="path7800"
       style="stroke:#ff0000;stroke-opacity:1" />
  </g>
  <g
     id="p-3"
     style="fill:none;stroke:#ff0000;stroke-linecap:round;stroke-linejoin:round;stroke-opacity:1">
    <path
       d="m 15.1,106.2 h 32 c 0.055,0 0.1,-0.045 0.1,-0.1 v -9.9 c 0,-0.1 -0.1,0 0,0 h 4.9 c 0.055,0 0.1,-0.045 0.1,-0.1 v -10 C 52.2,86.045 52.155,86 52.1,86 h -4.9 c -0.1,0 0,0.1 0,0 v -9.8 c 0,-0.1 -0.1,0 0,0 h 4.9 c 0.055,0 0.1,-0.045 0.1,-0.1 v -10 C 52.2,66.045 52.155,66 52.1,66 h -4.9 c -0.1,0 0,0.1 0,0 V 56.1 C 47.2,56.045 47.155,56 47.1,56 H 36.2 c -0.1,0 0,0.1 0,0 V 51.1 C 36.2,51.045 36.155,51 36.1,51 h -10 C 26.045,51 26,51.045 26,51.1 V 56 c 0,0.1 0.1,0 0,0 H 15.1 C 15.045,56 15,56.045 15,56.1 V 66 c 0,0.1 0.1,0 0,0 H 10.1 C 10.045,66 10,66.045 10,66.1 v 10 c 0,0.055 0.045,0.1 0.1,0.1 H 15 c 0.1,0 0,-0.1 0,0 V 86 c 0,0.1 0.1,0 0,0 H 10.1 C 10.045,86 10,86.045 10,86.1 v 10 c 0,0.055 0.045,0.1 0.1,0.1 H 15 c 0.1,0 0,-0.1 0,0 v 9.9 c 0,0.055 0.045,0.1 0.1,0.1 z"
       stroke="#000000"
       stroke-width="0.2"
       id="path7803"
       style="stroke:#ff0000;stroke-opacity:1" />
  </g>
</svg>
